<!-- icon666.com - MILLIONS OF FREE VECTOR ICONS --><svg viewBox="0 0 512 512" xmlns="http://www.w3.org/2000/svg"><path d="m416 442c0-5.519531-4.480469-10-10-10s-10 4.480469-10 10 4.480469 10 10 10 10-4.480469 10-10zm0 0"></path><path d="m356 442c0-5.519531-4.480469-10-10-10s-10 4.480469-10 10 4.480469 10 10 10 10-4.480469 10-10zm0 0"></path><path d="m296 442c0-5.519531-4.480469-10-10-10s-10 4.480469-10 10 4.480469 10 10 10 10-4.480469 10-10zm0 0"></path><path d="m226 432c-5.519531 0-10 4.480469-10 10s4.480469 10 10 10 10-4.480469 10-10-4.480469-10-10-10zm0 0"></path><path d="m156 442c0 5.519531 4.480469 10 10 10s10-4.480469 10-10-4.480469-10-10-10-10 4.480469-10 10zm0 0"></path><path d="m96 442c0 5.519531 4.480469 10 10 10s10-4.480469 10-10-4.480469-10-10-10-10 4.480469-10 10zm0 0"></path><path d="m502 392c5.523438 0 10-4.476562 10-10s-4.476562-10-10-10h-93.230469l-129.34375-77.605469c10.03125-7.277343 16.574219-19.082031 16.574219-32.394531 0-14.902344-8.195312-28.476562-21.398438-35.421875-4.78125-2.511719-8.003906-8.117187-8.519531-14.578125h19.917969c3.421875 0 6.605469-1.75 8.441406-4.640625l40-63c2.078125-3.269531 2.078125-7.449219 0-10.71875l-40-63c-1.835937-2.890625-5.019531-4.640625-8.441406-4.640625h-20v-56c0-5.523438-4.476562-10-10-10s-10 4.476562-10 10v56h-20c-3.421875 0-6.605469 1.75-8.441406 4.640625l-40 63c-2.078125 3.269531-2.078125 7.449219 0 10.71875l40 63c1.835937 2.890625 5.019531 4.640625 8.441406 4.640625h20.058594c.582031 14.027344 7.828125 26.289062 19.234375 32.28125 6.605469 3.472656 10.707031 10.265625 10.707031 17.71875 0 11.027344-8.972656 20-20 20s-20-8.972656-20-20c0-5.523438-4.476562-10-10-10s-10 4.476562-10 10c0 13.3125 6.542969 25.117188 16.574219 32.394531l-129.34375 77.605469h-93.230469c-5.523438 0-10 4.476562-10 10s4.476562 10 10 10h20v100h-20c-5.523438 0-10 4.476562-10 10s4.476562 10 10 10h201c5.523438 0 10-4.476562 10-10s-4.476562-10-10-10h-161v-100h412v100h-161c-5.523438 0-10 4.476562-10 10s4.476562 10 10 10h201c5.523438 0 10-4.476562 10-10s-4.476562-10-10-10h-20v-100zm-270.503906-200-33.648438-53 33.648438-53h49.007812l33.648438 53-33.648438 53zm-89.394532 180 113.898438-68.339844 113.898438 68.339844zm0 0"></path><path d="m266 502c0 5.523438-4.476562 10-10 10s-10-4.476562-10-10 4.476562-10 10-10 10 4.476562 10 10zm0 0"></path></svg>